# Blender 4.0.2
# www.blender.org
mtllib box_1.mtl
o box_1
v -0.274913 0.763421 -0.200222
v -0.274691 0.363630 -0.200000
v -0.274913 0.763421 0.200222
v -0.274691 0.363631 0.200000
v -0.674914 0.763421 -0.200222
v -0.675136 0.363630 -0.200000
v -0.674914 0.763421 0.200222
v -0.675136 0.363631 0.200000
vn -0.0000 1.0000 -0.0000
vn -0.0000 -0.0006 1.0000
vn -1.0000 0.0006 -0.0000
vn -0.0000 -1.0000 -0.0000
vn 1.0000 0.0006 -0.0000
vn -0.0000 -0.0006 -1.0000
vt 0.335038 0.002002
vt 0.664064 0.002002
vt 0.664064 0.331394
vt 0.335038 0.331394
vt 0.668056 0.330851
vt 0.668239 0.001998
vt 0.997265 0.001998
vt 0.997447 0.330851
vt 0.664607 0.336004
vt 0.664790 0.664858
vt 0.335398 0.664858
vt 0.335581 0.336004
vt 0.002005 0.331396
vt 0.002005 0.002005
vt 0.331031 0.002005
vt 0.331031 0.331396
vt 0.668793 0.664860
vt 0.668611 0.336006
vt 0.998002 0.336006
vt 0.997820 0.664860
vt 0.002004 0.664855
vt 0.002187 0.336001
vt 0.331213 0.336001
vt 0.331396 0.664855
s 0
usemtl box_1
f 1/1/1 5/2/1 7/3/1 3/4/1
f 4/5/2 3/6/2 7/7/2 8/8/2
f 8/9/3 7/10/3 5/11/3 6/12/3
f 6/13/4 2/14/4 4/15/4 8/16/4
f 2/17/5 1/18/5 3/19/5 4/20/5
f 6/21/6 5/22/6 1/23/6 2/24/6
