# Blender 4.0.2
# www.blender.org
mtllib box_3.mtl
o box_3
v 0.022947 -0.199895 0.200222
v 0.023370 0.199895 0.200000
v 0.022947 -0.199895 -0.200222
v 0.023370 0.199895 -0.200000
v -0.739416 -0.199895 0.200222
v -0.739840 0.199895 0.200000
v -0.739416 -0.199895 -0.200222
v -0.739840 0.199895 -0.200000
vn -0.0000 -1.0000 -0.0000
vn -0.0000 0.0006 -1.0000
vn -1.0000 -0.0011 -0.0000
vn -0.0000 1.0000 -0.0000
vn 1.0000 -0.0011 -0.0000
vn -0.0000 0.0006 1.0000
vt 0.742708 0.000996
vt 0.742708 0.485610
vt 0.488156 0.485610
vt 0.488157 0.000996
vt 0.486155 0.255273
vt 0.485886 0.509409
vt 0.001272 0.509409
vt 0.001003 0.255273
vt 0.742440 0.488990
vt 0.742581 0.743126
vt 0.488029 0.743126
vt 0.488170 0.488990
vt 0.001003 0.001004
vt 0.486155 0.001004
vt 0.744588 0.743125
vt 0.744447 0.488989
vt 0.998998 0.488989
vt 0.998857 0.743125
vt 0.486151 0.512994
vt 0.485882 0.767130
vt 0.001269 0.767130
vt 0.001000 0.512994
s 0
usemtl box_3
f 1/1/1 5/2/1 7/3/1 3/4/1
f 4/5/2 3/6/2 7/7/2 8/8/2
f 8/9/3 7/10/3 5/11/3 6/12/3
f 6/13/4 2/14/4 4/5/4 8/8/4
f 2/15/5 1/16/5 3/17/5 4/18/5
f 6/19/6 5/20/6 1/21/6 2/22/6
